<!DOCTYPE svg PUBLIC "-//W3C//DTD SVG 1.1//EN" "http://www.w3.org/Graphics/SVG/1.1/DTD/svg11.dtd">
<!-- Uploaded to: SVG Repo, www.svgrepo.com, Transformed by: SVG Repo Mixer Tools -->
<svg fill="#000000" width="800px" height="800px" viewBox="0 0 24 24" id="cashier" data-name="Line Color" xmlns="http://www.w3.org/2000/svg" class="icon line-color">
<g id="SVGRepo_bgCarrier" stroke-width="0"/>
<g id="SVGRepo_tracerCarrier" stroke-linecap="round" stroke-linejoin="round"/>
<g id="SVGRepo_iconCarrier">
<path id="secondary" d="M17,3H11a1,1,0,0,0-1,1V6a1,1,0,0,0,1,1h6a1,1,0,0,0,1-1V4A1,1,0,0,0,17,3ZM14,7v4" style="fill: none; stroke: #b3e8c9; stroke-linecap: round; stroke-linejoin: round; stroke-width: 2;"/>
<path id="primary" d="M21,17v3a1,1,0,0,1-1,1H4a1,1,0,0,1-1-1V17Zm-1,0V12a1,1,0,0,0-1-1H5a1,1,0,0,0-1,1v5Z" style="fill: none; stroke: #43c67a; stroke-linecap: round; stroke-linejoin: round; stroke-width: 2;"/>
</g>
</svg>