<!DOCTYPE svg PUBLIC "-//W3C//DTD SVG 1.1//EN" "http://www.w3.org/Graphics/SVG/1.1/DTD/svg11.dtd">
<!-- Uploaded to: SVG Repo, www.svgrepo.com, Transformed by: SVG Repo Mixer Tools -->
<svg fill="#43c67a" width="800px" height="800px" viewBox="0 0 1069.00 1069.00" style="fill-rule:evenodd;clip-rule:evenodd;stroke-linejoin:round;stroke-miterlimit:2;" version="1.1" xml:space="preserve" xmlns="http://www.w3.org/2000/svg" xmlns:serif="http://www.serif.com/" xmlns:xlink="http://www.w3.org/1999/xlink" stroke="#43c67a" stroke-width="0.010690000000000002" transform="matrix(1, 0, 0, 1, 0, 0)rotate(0)">
<g id="SVGRepo_bgCarrier" stroke-width="0"/>
<g id="SVGRepo_tracerCarrier" stroke-linecap="round" stroke-linejoin="round"/>
<g id="SVGRepo_iconCarrier"> <rect height="1066.67" id="Headset" style="fill:none;" width="1066.67" x="1.411" y="1.589"/> <g> <path d="M863.764,641.673c0,-25.549 -10.149,-50.052 -28.215,-68.118c-18.066,-18.066 -42.569,-28.216 -68.118,-28.216l-0.108,0c-25.549,0 -50.052,10.15 -68.118,28.216c-18.066,18.066 -28.215,42.569 -28.215,68.118c-0,43.071 -0,99.334 -0,142.404c-0,25.549 10.149,50.052 28.215,68.118c18.066,18.066 42.569,28.216 68.118,28.216l0.108,-0c25.549,-0 50.052,-10.15 68.118,-28.216c18.066,-18.066 28.215,-42.569 28.215,-68.118l-0,-142.404Zm-465.265,0c0.001,-25.549 -10.149,-50.052 -28.215,-68.118c-18.066,-18.066 -42.568,-28.216 -68.118,-28.216l-0.108,0c-25.549,0 -50.052,10.15 -68.118,28.216c-18.066,18.066 -28.215,42.569 -28.215,68.118c0,43.071 0,99.334 0,142.404c0,25.549 10.149,50.052 28.215,68.118c18.066,18.066 42.569,28.216 68.118,28.216l0.108,-0c25.55,-0 50.052,-10.15 68.118,-28.216c18.066,-18.066 28.216,-42.569 28.215,-68.118l0,-142.404Zm402.765,-0l-0,142.404c-0,8.973 -3.565,17.579 -9.91,23.924c-6.344,6.345 -14.949,9.909 -23.922,9.91c-0.003,-0 -0.109,-0 -0.109,-0c-8.974,-0.001 -17.579,-3.565 -23.924,-9.91c-6.345,-6.345 -9.909,-14.951 -9.909,-23.924l-0,-142.404c-0,-8.973 3.564,-17.579 9.909,-23.924c6.345,-6.345 14.95,-9.909 23.923,-9.91c0.003,0 0.108,0 0.108,0c8.975,0.001 17.58,3.565 23.924,9.91c6.345,6.345 9.91,14.951 9.91,23.924Zm-465.265,-0l0,142.404c0,8.973 -3.564,17.579 -9.909,23.924c-6.345,6.345 -14.95,9.909 -23.922,9.91c-0.004,-0 -0.109,-0 -0.109,-0c-8.975,-0.001 -17.58,-3.565 -23.924,-9.91c-6.345,-6.345 -9.91,-14.951 -9.91,-23.924l0,-142.404c0,-8.973 3.565,-17.579 9.91,-23.924c6.344,-6.345 14.949,-9.909 23.922,-9.91c0.004,0 0.109,0 0.109,0c8.974,0.001 17.579,3.565 23.924,9.91c6.345,6.345 9.909,14.951 9.909,23.924Z" style="fill-opacity:0.5;"/> <path d="M946.603,714.727l-0,-221.472c-0.001,-201.353 -163.23,-364.582 -364.584,-364.582c-31.371,-0 -63.178,-0 -94.549,-0c-201.354,-0 -364.583,163.229 -364.583,364.582c-0,117.75 -0,221.472 -0,221.472c-0,17.248 14.002,31.25 31.25,31.25c17.247,0 31.25,-14.002 31.25,-31.25l-0,-221.47c0.001,-166.838 135.248,-302.084 302.083,-302.084c31.371,-0 63.178,-0 94.549,-0c166.836,-0 302.082,135.246 302.084,302.081c-0,0.003 -0,221.473 -0,221.473c-0,17.248 14.002,31.25 31.25,31.25c17.247,0 31.25,-14.002 31.25,-31.25Zm-504.911,-430.501l167.495,-0c17.247,-0 31.25,-14.003 31.25,-31.25c-0,-17.248 -14.003,-31.25 -31.25,-31.25l-167.495,-0c-17.248,-0 -31.25,14.002 -31.25,31.25c-0,17.247 14.002,31.25 31.25,31.25Z"/> </g> </g>
</svg>