<!DOCTYPE svg PUBLIC "-//W3C//DTD SVG 1.1//EN" "http://www.w3.org/Graphics/SVG/1.1/DTD/svg11.dtd">
<!-- Uploaded to: SVG Repo, www.svgrepo.com, Transformed by: SVG Repo Mixer Tools -->
<svg fill="#000000" width="800px" height="800px" viewBox="0 0 24 24" id="invoice-dollar" data-name="Flat Color" xmlns="http://www.w3.org/2000/svg" class="icon flat-color">
<g id="SVGRepo_bgCarrier" stroke-width="0"/>
<g id="SVGRepo_tracerCarrier" stroke-linecap="round" stroke-linejoin="round"/>
<g id="SVGRepo_iconCarrier">
<path id="primary" d="M13,10a6,6,0,0,1,5-5.91V4a2,2,0,0,0-2-2H4A2,2,0,0,0,2,4V20a2,2,0,0,0,2,2H16a2,2,0,0,0,2-2V15.91A6,6,0,0,1,13,10Z" style="fill: #43c67a;"/>
<path id="secondary" d="M22,11.5A2.5,2.5,0,0,1,20,14V14a1,1,0,0,1-2,0H17a1,1,0,0,1,0-2h2.5a.5.5,0,0,0,0-1h-1A2.5,2.5,0,0,1,18,6.05V6a1,1,0,0,1,2,0h1a1,1,0,0,1,0,2H18.5a.5.5,0,0,0,0,1h1A2.5,2.5,0,0,1,22,11.5ZM11,13a1,1,0,0,0-1-1H6a1,1,0,0,0,0,2h4A1,1,0,0,0,11,13Zm2,4a1,1,0,0,0-1-1H6a1,1,0,0,0,0,2h6A1,1,0,0,0,13,17Z" style="fill: #b3e8c9;"/>
</g>
</svg>